<svg xmlns="http://www.w3.org/2000/svg" xmlns:xlink="http://www.w3.org/1999/xlink" width="2000" zoomAndPan="magnify" viewBox="0 0 1500 1499.999933" height="2000" preserveAspectRatio="xMidYMid meet" version="1.0"><defs><clipPath id="81f931026a"><path d="M 905 1011.042969 L 955 1011.042969 L 955 1077 L 905 1077 Z M 905 1011.042969 " clip-rule="nonzero"/></clipPath><clipPath id="5ba3a2fd1e"><path d="M 812.25 1106 L 873 1106 L 873 1152 L 812.25 1152 Z M 812.25 1106 " clip-rule="nonzero"/></clipPath></defs><path fill="#7dd3f2" d="M 688.011719 806.613281 L 690.984375 806.613281 L 791.402344 583.585938 C 797.121094 583.128906 803.070312 582.902344 809.015625 582.902344 C 820.226562 582.902344 831.664062 584.042969 843.097656 586.332031 L 843.097656 827.660156 L 812.90625 827.660156 L 812.90625 836.121094 L 887.019531 836.121094 C 917.898438 836.121094 922.472656 843.898438 922.472656 891.707031 L 922.472656 955.757812 C 922.472656 1009.054688 883.816406 1042.222656 817.480469 1042.222656 C 695.558594 1042.222656 618.242188 954.15625 618.242188 815.308594 C 618.242188 771.617188 625.792969 732.5 639.515625 699.332031 Z M 795.519531 574.4375 L 843.097656 468.527344 L 843.097656 578.785156 C 828.003906 575.808594 812.675781 574.667969 795.519531 574.4375 Z M 905.316406 827.660156 L 890.222656 827.660156 L 890.222656 603.488281 C 919.273438 620.1875 940.316406 646.492188 940.316406 683.09375 L 947.863281 683.09375 L 947.863281 586.5625 L 940.316406 586.5625 C 940.316406 609.894531 938.714844 615.15625 932.539062 615.15625 C 927.964844 615.15625 922.472656 612.179688 917.898438 608.976562 C 908.292969 603.257812 899.140625 598.457031 890.222656 594.339844 L 890.222656 509.472656 C 890.222656 468.527344 900.972656 452.289062 927.277344 452.289062 L 927.277344 450 L 843.097656 450 L 787.285156 574.4375 C 738.332031 574.894531 693.042969 592.738281 656.671875 622.703125 L 579.128906 450 L 491.058594 450 L 491.058594 452.289062 C 517.367188 452.289062 527.429688 468.527344 527.429688 509.472656 L 527.429688 776.648438 C 527.429688 817.59375 517.367188 833.835938 491.058594 833.835938 L 491.058594 836.121094 L 568.605469 836.121094 C 576.839844 963.078125 673.140625 1050 810.617188 1050 C 845.15625 1050 871.464844 1044.511719 901.660156 1026.898438 C 917.898438 1017.519531 931.851562 1012.027344 942.605469 1012.027344 C 957.929688 1012.027344 966.394531 1022.09375 966.394531 1042.222656 L 972.570312 1042.222656 L 972.570312 891.707031 C 972.570312 844.585938 978.058594 836.121094 1008.941406 836.121094 L 1008.941406 827.660156 Z M 782.710938 584.503906 L 711.113281 744.167969 L 668.566406 649.464844 C 696.929688 613.78125 735.816406 590.679688 782.710938 584.503906 Z M 568.605469 833.605469 C 544.816406 832.234375 534.980469 815.535156 534.980469 776.648438 L 534.980469 466.925781 L 621.445312 658.84375 C 588.046875 701.390625 568.148438 756.976562 568.148438 818.28125 C 568.148438 823.542969 568.148438 828.574219 568.605469 833.605469 Z M 568.605469 833.605469 " fill-opacity="1" fill-rule="nonzero"/><path fill="#7dd3f2" d="M 618.75 316.910156 C 622.4375 330.425781 601.90625 326.53125 613.304688 311.859375 C 616.023438 311.277344 618.167969 314.78125 618.75 316.910156 Z M 542.671875 391.566406 C 541.003906 392.441406 538.796875 392.371094 536.152344 391.375 C 542.316406 388.757812 544.90625 384.703125 545.933594 382.351562 C 546.3125 382.523438 546.710938 382.65625 547.144531 382.738281 C 546.753906 385.746094 545.589844 390.039062 542.671875 391.566406 Z M 530.300781 388.171875 C 511.429688 375.105469 541.480469 364.585938 543.828125 375.941406 C 543.503906 376.242188 543.179688 376.539062 542.84375 376.832031 C 542.785156 377.984375 543.027344 379.09375 543.566406 380.167969 C 542.089844 385 536.996094 388.207031 532.441406 389.550781 C 531.753906 389.140625 531.035156 388.679688 530.300781 388.171875 Z M 482.082031 437.363281 C 464.859375 445.871094 454.414062 460.242188 439.605469 471.890625 C 433.316406 476.84375 415.449219 488.972656 421.945312 471.617188 C 440.3125 463.230469 451.722656 446.382812 466.398438 433.71875 C 481.953125 420.285156 495.984375 397.699219 517.808594 394.203125 C 530.011719 416.179688 497.257812 429.871094 482.082031 437.363281 Z M 452.402344 442.449219 C 444.269531 452.382812 435.179688 461.757812 423.605469 467.613281 C 428.925781 455.769531 441.753906 448.648438 452.402344 442.449219 Z M 338.589844 483.488281 C 356.195312 473.5 375.648438 466.945312 393.488281 456.808594 C 410.296875 447.265625 427.960938 437.054688 446.886719 432.308594 C 451.691406 431.101562 459.242188 427.570312 457.679688 434.5625 C 456.46875 439.964844 440.769531 445.761719 436.550781 448.921875 C 429.144531 454.46875 423.019531 460.808594 419.558594 469.535156 C 397.851562 479.210938 367.285156 483.375 338.589844 483.488281 Z M 332.507812 483.449219 C 299.640625 482.917969 253.042969 479.339844 238.914062 443.527344 C 262.523438 470.015625 302.648438 486.429688 337.976562 480.410156 C 336.191406 481.429688 334.367188 482.449219 332.507812 483.449219 Z M 231.4375 403.601562 C 223.089844 327.679688 299.175781 292.796875 362.492188 319.644531 C 386.0625 358.519531 417.378906 387.011719 454.078125 413.046875 C 431.675781 420.507812 411.5625 428.75 392.25 442.609375 C 373.445312 456.101562 354.988281 475.878906 331.140625 478.210938 C 307.132812 480.554688 282.664062 472.332031 262.5 459.59375 C 254.683594 454.65625 245.527344 448.335938 240.089844 440.695312 C 232.738281 430.363281 232.804688 416.058594 231.4375 403.601562 Z M 336.34375 298.847656 C 337.648438 299.378906 350.660156 306.269531 349.164062 306.8125 C 345.535156 307.914062 337.886719 300.277344 336.34375 298.847656 Z M 218.605469 378.984375 C 218.605469 339.476562 238.78125 309.238281 277.820312 299.140625 C 288.707031 296.324219 300.121094 294.171875 311.414062 294.277344 C 316.417969 294.324219 325.0625 294.351562 329.84375 296.613281 C 335.089844 299.09375 337.910156 307.039062 344.101562 308.414062 C 352.996094 310.390625 353.511719 305.832031 346.988281 300.234375 C 342.859375 296.695312 335.828125 296.980469 331.445312 294.015625 C 328.132812 291.773438 324.203125 286.09375 321.75 283.085938 C 304.027344 261.371094 311.207031 246.957031 331.609375 230.871094 C 350.347656 216.101562 371.054688 203.75 386.207031 184.898438 C 401.757812 165.546875 407.222656 141.726562 415.417969 118.875 C 418.738281 109.613281 419.585938 103.921875 429.292969 105.300781 C 437.203125 106.425781 448.429688 119.582031 453.808594 125.128906 C 439.214844 143.617188 427.300781 164.929688 410.539062 181.597656 C 396.53125 195.53125 377.445312 202.550781 363.496094 216.964844 C 333.6875 247.765625 339.996094 281.019531 359.988281 315.429688 C 323.796875 301.0625 283.121094 302.265625 253.90625 330.402344 C 225.210938 358.035156 224.785156 393.125 231.992188 429.730469 C 223.089844 415.378906 218.605469 398.4375 218.605469 378.984375 Z M 455.871094 127.3125 C 496.300781 171.050781 503.542969 236.085938 504.667969 292.972656 C 505.375 328.289062 509.734375 391.539062 469.03125 407.808594 C 445.046875 369.128906 406.296875 335.335938 364.546875 317.316406 C 343.699219 282.640625 335.699219 249.066406 366.714844 217.894531 C 380.371094 204.167969 398.832031 197.355469 412.433594 183.90625 C 429.292969 167.234375 441.285156 145.875 455.871094 127.3125 Z M 467.769531 411.480469 C 471.183594 417.253906 471.65625 419.285156 471.636719 419.984375 C 470.054688 420.039062 465.949219 417.582031 460.644531 413.988281 C 463.261719 413.105469 465.617188 412.289062 467.769531 411.480469 Z M 457.585938 411.878906 C 421.648438 386.757812 390.808594 359.242188 367.277344 321.761719 C 406.679688 339.914062 443.222656 372.011719 466.199219 408.894531 C 463.667969 409.828125 460.835938 410.789062 457.585938 411.878906 Z M 494.800781 98.699219 C 521.625 100.828125 533.195312 151.628906 538.324219 172.101562 C 545.4375 200.515625 547.925781 230.117188 546.703125 259.351562 C 545.390625 290.734375 540.339844 323.015625 526.652344 351.53125 C 521.414062 362.433594 507.988281 379.292969 516.113281 391.480469 C 491.832031 396.351562 480.5625 421.058594 461.335938 433.613281 C 464.773438 420.921875 437.175781 432.402344 434.324219 433.476562 C 407.25 443.691406 384.117188 461.601562 357.191406 471.914062 C 375.425781 459.605469 392.070312 444.75 411.078125 433.601562 C 425.40625 425.199219 441.4375 420.398438 457.113281 415.171875 C 466.683594 421.800781 480.601562 427.480469 470.585938 410.382812 C 515.183594 392.25 508.804688 320.523438 507.292969 282.125 C 505.144531 227.515625 496.570312 166.660156 457.742188 124.953125 C 470.238281 109.417969 482.765625 97.746094 494.800781 98.699219 Z M 749.359375 227.292969 C 701.039062 234.699219 658.3125 258.574219 624.894531 293.882812 C 609.804688 309.828125 597.589844 323.398438 587.460938 343.238281 C 583.117188 351.734375 558.660156 388.003906 546.789062 379.429688 C 546.921875 378.648438 546.960938 377.875 546.941406 377.125 C 566.921875 358.425781 577.9375 340.671875 581.417969 313.46875 C 581.683594 311.355469 586.125 281.34375 593.65625 291.0625 C 597.859375 296.488281 592.015625 303.605469 586.050781 301.171875 C 583.308594 309.410156 611.175781 296.304688 594.03125 287.753906 C 581.574219 281.535156 579.363281 306.117188 578.457031 313.183594 C 575.125 339.109375 565.015625 355.589844 546.242188 373.664062 C 540.417969 359.507812 506.027344 374.703125 528.359375 390.441406 C 525.363281 390.703125 522.363281 390.886719 519.359375 391.007812 C 510.230469 376.785156 528.605469 355.785156 533.875 342.808594 C 547.757812 308.609375 551.125 269.238281 549.695312 232.675781 C 548.269531 196.105469 541.027344 159.058594 525.011719 125.96875 C 519.335938 114.234375 511.253906 98.546875 496.96875 96.074219 C 479.828125 93.105469 465.109375 111.121094 455.679688 122.789062 C 444.445312 111.265625 426.492188 90.625 415.296875 110.621094 C 402.183594 134.042969 401.398438 161.304688 383.777344 183.152344 C 367.605469 203.210938 345.054688 215.457031 325.636719 231.8125 C 301.195312 252.398438 305.855469 270.421875 326.207031 292.742188 C 271.464844 281.921875 218.933594 316.308594 215.808594 372.457031 C 214.210938 401.160156 225.632812 431.371094 241.523438 454.867188 C 259.8125 481.914062 297.722656 485.214844 327.359375 486.148438 C 296.113281 502.050781 256.40625 515.6875 220.804688 511.425781 C 195.554688 508.402344 175.558594 487.558594 150.191406 487.558594 L 150.191406 490.535156 C 170.886719 490.535156 186.671875 505.660156 205.746094 511.417969 C 227.96875 518.125 251.828125 514.597656 273.875 509.019531 C 296.644531 503.265625 321.039062 486.707031 343.808594 486.207031 C 368.820312 485.660156 394.9375 482.789062 418.261719 473.210938 C 411.871094 494.40625 438.484375 476.828125 444.027344 472.089844 C 455.804688 462.015625 465.058594 449.875 478.863281 442.292969 C 495.796875 432.984375 533.894531 419.785156 521.007812 393.878906 C 524.738281 393.726562 528.375 393.652344 532.03125 392.738281 C 541.566406 397.921875 549.015625 392.710938 550.132812 382.726562 C 582.453125 377.246094 588.441406 336.722656 606.648438 316.65625 C 603.390625 326.011719 614.855469 334.257812 620.785156 325.816406 C 624.074219 321.128906 621.859375 310.4375 615.621094 308.957031 C 649.652344 267.285156 696.292969 238.4375 749.808594 230.234375 L 749.359375 227.292969 " fill-opacity="1" fill-rule="nonzero"/><path fill="#7dd3f2" d="M 934.519531 1131.6875 C 934.519531 1131.6875 934.769531 1131.6875 935.277344 1131.6875 C 935.78125 1131.6875 936.539062 1131.6875 937.679688 1131.8125 C 939.703125 1132.066406 942.734375 1132.824219 945.769531 1134.972656 C 947.289062 1135.984375 948.804688 1137.503906 950.070312 1139.398438 C 951.335938 1141.296875 952.21875 1143.699219 952.21875 1146.355469 C 952.34375 1149.007812 951.460938 1151.664062 949.816406 1154.066406 C 948.171875 1156.34375 945.769531 1158.367188 942.734375 1159.25 C 939.828125 1160.136719 936.667969 1159.882812 934.011719 1158.871094 C 931.355469 1157.859375 929.082031 1155.964844 927.691406 1153.8125 C 926.300781 1151.664062 925.539062 1149.261719 925.414062 1146.988281 C 925.289062 1144.710938 925.667969 1142.5625 926.300781 1140.917969 C 927.691406 1137.375 929.964844 1135.226562 931.609375 1133.964844 C 932.367188 1133.332031 933.125 1132.953125 933.632812 1132.699219 C 934.136719 1132.445312 934.390625 1132.320312 934.390625 1132.320312 C 934.390625 1132.320312 934.136719 1132.445312 933.757812 1132.824219 C 933.378906 1133.078125 932.746094 1133.582031 931.988281 1134.34375 C 930.597656 1135.734375 928.574219 1138.007812 927.691406 1141.421875 C 927.183594 1143.066406 927.058594 1144.964844 927.308594 1146.988281 C 927.5625 1149.007812 928.320312 1151.03125 929.710938 1152.800781 C 930.976562 1154.574219 932.875 1156.089844 935.148438 1156.847656 C 937.425781 1157.605469 939.953125 1157.734375 942.355469 1156.976562 C 947.160156 1155.585938 950.324219 1150.78125 950.449219 1146.480469 C 950.574219 1144.332031 949.941406 1142.179688 948.933594 1140.410156 C 947.921875 1138.640625 946.65625 1137.25 945.390625 1136.113281 C 942.734375 1133.835938 939.953125 1132.824219 937.929688 1132.320312 C 936.921875 1132.066406 936.160156 1131.941406 935.65625 1131.941406 C 934.769531 1131.6875 934.519531 1131.6875 934.519531 1131.6875 Z M 934.519531 1131.6875 " fill-opacity="1" fill-rule="nonzero"/><path fill="#7dd3f2" d="M 907.332031 1075.042969 C 907.332031 1075.042969 907.332031 1074.664062 907.332031 1073.777344 C 907.332031 1072.890625 907.332031 1071.753906 907.207031 1070.109375 C 906.953125 1066.949219 906.195312 1062.398438 904.296875 1057.214844 L 904.804688 1057.847656 C 902.527344 1056.960938 899.492188 1057.085938 896.964844 1058.351562 C 895.699219 1058.984375 894.4375 1059.867188 893.550781 1061.132812 C 892.664062 1062.269531 892.035156 1063.664062 891.78125 1065.304688 C 891.273438 1068.46875 892.035156 1072.261719 892.664062 1076.179688 C 893.296875 1080.097656 894.058594 1084.144531 895.066406 1088.191406 C 896.078125 1092.238281 897.34375 1096.03125 898.863281 1099.570312 C 900.503906 1103.113281 902.527344 1106.144531 904.929688 1108.800781 C 909.734375 1113.984375 915.296875 1117.777344 919.597656 1121.445312 C 923.898438 1124.984375 927.058594 1128.398438 928.828125 1131.054688 C 929.207031 1131.6875 929.585938 1132.320312 929.964844 1132.824219 C 930.34375 1133.332031 930.472656 1133.835938 930.722656 1134.214844 C 931.105469 1134.972656 931.230469 1135.355469 931.230469 1135.355469 C 931.230469 1135.355469 930.976562 1134.972656 930.472656 1134.34375 C 930.21875 1133.964844 929.964844 1133.582031 929.585938 1133.078125 C 929.207031 1132.570312 928.828125 1132.066406 928.320312 1131.433594 C 926.300781 1129.03125 922.886719 1126.125 918.332031 1122.960938 C 916.058594 1121.320312 913.527344 1119.675781 910.746094 1117.777344 C 908.089844 1115.882812 905.183594 1113.734375 902.402344 1110.949219 C 899.621094 1108.167969 897.34375 1104.882812 895.449219 1101.089844 C 893.550781 1097.296875 892.160156 1093.25 891.148438 1089.078125 C 890.136719 1084.902344 889.503906 1080.730469 888.871094 1076.8125 C 888.367188 1072.890625 887.609375 1068.847656 888.367188 1064.800781 C 888.746094 1062.777344 889.757812 1060.878906 891.023438 1059.363281 C 892.285156 1057.847656 893.929688 1056.835938 895.574219 1056.074219 C 898.863281 1054.683594 902.527344 1054.8125 905.308594 1056.074219 L 905.6875 1056.328125 L 905.816406 1056.707031 C 907.460938 1062.269531 907.585938 1066.949219 907.585938 1070.109375 C 907.585938 1071.753906 907.460938 1072.890625 907.332031 1073.777344 C 907.460938 1074.535156 907.332031 1075.042969 907.332031 1075.042969 Z M 907.332031 1075.042969 " fill-opacity="1" fill-rule="nonzero"/><g clip-path="url(#81f931026a)"><path fill="#7dd3f2" d="M 944.253906 1075.546875 C 944.253906 1075.546875 944.507812 1075.042969 944.886719 1074.15625 C 945.265625 1073.273438 945.898438 1071.882812 946.53125 1070.109375 C 947.792969 1066.570312 949.5625 1061.261719 950.324219 1054.433594 C 950.703125 1051.019531 950.953125 1047.351562 950.828125 1043.433594 C 950.703125 1041.410156 950.703125 1039.386719 950.324219 1037.363281 C 950.070312 1035.214844 949.816406 1033.191406 949.183594 1031.039062 C 948.679688 1029.019531 947.792969 1026.996094 946.78125 1025.222656 C 945.644531 1023.453125 944.253906 1021.683594 942.484375 1020.292969 C 939.070312 1017.511719 934.519531 1015.742188 929.839844 1015.867188 C 925.160156 1015.996094 920.609375 1017.765625 917.320312 1020.671875 C 913.90625 1023.582031 911.757812 1027.5 910.492188 1031.671875 C 909.230469 1035.71875 908.597656 1040.019531 908.472656 1043.9375 C 908.21875 1047.855469 908.34375 1051.652344 908.597656 1055.0625 C 908.976562 1061.890625 909.988281 1067.328125 910.746094 1071.121094 C 911.125 1073.019531 911.503906 1074.410156 911.757812 1075.421875 C 912.011719 1076.433594 912.136719 1076.9375 912.136719 1076.9375 C 912.136719 1076.9375 911.886719 1076.433594 911.632812 1075.546875 C 911.253906 1074.535156 910.746094 1073.144531 910.113281 1071.375 C 908.976562 1067.707031 907.332031 1062.269531 906.449219 1055.316406 C 905.941406 1051.902344 905.5625 1048.109375 905.4375 1043.9375 C 905.4375 1039.765625 905.6875 1035.339844 906.953125 1030.660156 C 908.21875 1025.984375 910.492188 1021.179688 914.667969 1017.511719 C 918.710938 1013.84375 924.277344 1011.570312 930.09375 1011.441406 C 933 1011.316406 935.910156 1011.820312 938.5625 1012.832031 C 941.21875 1013.84375 943.621094 1015.363281 945.644531 1017.132812 C 947.667969 1018.902344 949.4375 1021.050781 950.703125 1023.328125 C 951.964844 1025.605469 952.851562 1028.132812 953.355469 1030.410156 C 953.863281 1032.8125 954.117188 1035.085938 954.242188 1037.234375 C 954.367188 1039.386719 954.367188 1041.660156 954.242188 1043.683594 C 954.117188 1047.855469 953.484375 1051.652344 952.726562 1055.0625 C 951.207031 1061.890625 948.933594 1067.078125 947.289062 1070.617188 C 946.402344 1072.386719 945.644531 1073.652344 945.136719 1074.535156 C 944.507812 1075.042969 944.253906 1075.546875 944.253906 1075.546875 Z M 944.253906 1075.546875 " fill-opacity="1" fill-rule="nonzero"/></g><path fill="#7dd3f2" d="M 975.609375 1085.03125 C 975.609375 1085.03125 975.738281 1084.144531 975.988281 1082.753906 C 976.242188 1081.238281 976.621094 1079.214844 977 1076.558594 C 977.378906 1073.902344 977.761719 1070.871094 977.761719 1067.328125 C 977.761719 1063.914062 977.378906 1060.121094 976.117188 1056.328125 C 974.851562 1052.660156 972.957031 1049.375 970.425781 1047.097656 C 967.898438 1044.824219 965.117188 1043.433594 962.585938 1042.800781 C 960.058594 1042.167969 957.910156 1042.292969 956.519531 1042.546875 C 955.757812 1042.671875 955.253906 1042.800781 954.875 1042.925781 C 954.496094 1043.050781 954.242188 1043.050781 954.242188 1043.050781 C 954.242188 1043.050781 954.367188 1042.925781 954.75 1042.800781 C 955.128906 1042.671875 955.632812 1042.421875 956.390625 1042.167969 C 957.78125 1041.660156 960.058594 1041.410156 962.714844 1041.789062 C 965.367188 1042.167969 968.53125 1043.433594 971.4375 1045.835938 C 974.21875 1048.238281 976.496094 1051.777344 977.761719 1055.695312 C 979.023438 1059.742188 979.402344 1063.664062 979.152344 1067.328125 C 978.898438 1070.871094 978.390625 1074.03125 977.761719 1076.6875 C 977.128906 1079.339844 976.496094 1081.363281 976.117188 1082.753906 C 975.863281 1084.273438 975.609375 1085.03125 975.609375 1085.03125 Z M 975.609375 1085.03125 " fill-opacity="1" fill-rule="nonzero"/><path fill="#7dd3f2" d="M 1017.589844 1082.753906 C 1017.589844 1082.753906 1017.589844 1082.628906 1017.589844 1082.5 C 1017.589844 1082.25 1017.714844 1081.996094 1017.714844 1081.617188 C 1017.839844 1080.859375 1017.839844 1079.71875 1017.460938 1078.457031 C 1017.082031 1077.066406 1016.324219 1075.546875 1014.933594 1074.15625 C 1013.667969 1072.765625 1011.644531 1071.628906 1009.371094 1071.121094 C 1007.09375 1070.617188 1004.3125 1070.742188 1001.65625 1071.628906 C 999.003906 1072.386719 996.21875 1073.902344 993.566406 1075.800781 C 990.910156 1077.695312 988.128906 1079.972656 985.347656 1082.25 C 982.4375 1084.523438 979.53125 1086.925781 976.75 1089.457031 C 973.96875 1091.984375 971.3125 1094.640625 969.035156 1097.421875 C 966.761719 1100.203125 964.863281 1103.113281 963.21875 1105.894531 C 959.804688 1111.582031 956.898438 1116.894531 954.242188 1121.320312 C 949.058594 1130.042969 945.769531 1135.480469 945.769531 1135.480469 C 945.769531 1135.480469 948.300781 1129.664062 952.726562 1120.558594 C 955 1116.007812 957.53125 1110.445312 960.691406 1104.503906 C 962.335938 1101.46875 964.230469 1098.433594 966.507812 1095.398438 C 968.78125 1092.363281 971.566406 1089.582031 974.472656 1086.925781 C 977.378906 1084.273438 980.414062 1081.871094 983.324219 1079.71875 C 986.230469 1077.570312 989.011719 1075.421875 991.921875 1073.523438 C 994.828125 1071.628906 997.863281 1070.109375 1001.023438 1069.480469 C 1004.058594 1068.71875 1007.222656 1068.847656 1009.75 1069.605469 C 1012.40625 1070.363281 1014.429688 1071.882812 1015.691406 1073.523438 C 1016.957031 1075.167969 1017.589844 1076.9375 1017.839844 1078.457031 C 1018.09375 1079.847656 1017.96875 1081.109375 1017.714844 1081.742188 C 1017.589844 1082.121094 1017.460938 1082.375 1017.460938 1082.5 C 1017.589844 1082.628906 1017.589844 1082.753906 1017.589844 1082.753906 Z M 1017.589844 1082.753906 " fill-opacity="1" fill-rule="nonzero"/><path fill="#7dd3f2" d="M 998.875 1130.296875 C 998.875 1130.296875 1000.519531 1130.042969 1003.300781 1129.410156 C 1006.082031 1128.777344 1010.253906 1127.640625 1014.933594 1125.617188 C 1019.613281 1123.59375 1025.046875 1120.433594 1029.347656 1115.503906 C 1031.496094 1112.972656 1033.394531 1110.066406 1034.785156 1106.90625 C 1036.175781 1103.617188 1036.933594 1100.078125 1036.808594 1096.285156 C 1036.808594 1094.386719 1036.429688 1092.742188 1035.667969 1091.351562 C 1034.910156 1089.960938 1033.898438 1089.203125 1032.382812 1088.699219 C 1030.863281 1088.191406 1029.09375 1088.066406 1027.449219 1087.9375 C 1025.679688 1087.9375 1024.039062 1088.066406 1022.394531 1088.191406 C 1015.820312 1088.949219 1009.875 1091.101562 1004.945312 1092.871094 C 1002.542969 1093.753906 1000.265625 1094.515625 998.371094 1095.273438 C 996.472656 1096.03125 994.957031 1096.917969 993.691406 1097.675781 C 992.425781 1098.433594 991.542969 1099.191406 991.035156 1099.699219 C 990.53125 1100.203125 990.152344 1100.457031 990.152344 1100.457031 C 990.152344 1100.457031 990.402344 1100.078125 990.910156 1099.570312 C 991.414062 1098.9375 992.175781 1098.179688 993.3125 1097.167969 C 994.449219 1096.285156 995.96875 1095.273438 997.863281 1094.261719 C 999.761719 1093.25 1001.910156 1092.238281 1004.3125 1091.226562 C 1009.117188 1089.078125 1014.808594 1086.546875 1021.886719 1085.285156 C 1023.65625 1085.03125 1025.554688 1084.777344 1027.449219 1084.777344 C 1029.347656 1084.777344 1031.371094 1084.777344 1033.394531 1085.410156 C 1034.40625 1085.789062 1035.542969 1086.167969 1036.429688 1086.925781 C 1037.441406 1087.6875 1038.199219 1088.570312 1038.832031 1089.707031 C 1039.96875 1091.859375 1040.347656 1094.007812 1040.347656 1096.15625 C 1040.601562 1100.457031 1039.589844 1104.628906 1037.945312 1108.167969 C 1036.300781 1111.835938 1034.027344 1114.871094 1031.496094 1117.527344 C 1026.441406 1122.710938 1020.496094 1125.617188 1015.4375 1127.261719 C 1010.382812 1128.90625 1006.210938 1129.539062 1003.300781 1129.917969 C 1000.519531 1130.296875 998.875 1130.296875 998.875 1130.296875 Z M 998.875 1130.296875 " fill-opacity="1" fill-rule="nonzero"/><path fill="#7dd3f2" d="M 948.171875 1151.03125 C 948.171875 1151.03125 949.816406 1151.160156 952.597656 1151.539062 C 955.507812 1151.792969 959.679688 1152.171875 964.863281 1152.421875 C 975.105469 1152.929688 989.394531 1152.675781 1004.816406 1150.398438 C 1012.40625 1149.136719 1019.613281 1146.988281 1025.046875 1143.445312 C 1030.484375 1139.90625 1034.152344 1134.847656 1035.164062 1130.042969 C 1036.300781 1125.238281 1035.289062 1120.941406 1033.898438 1118.539062 C 1033.265625 1117.273438 1032.507812 1116.386719 1032.003906 1115.882812 C 1031.496094 1115.375 1031.117188 1115.125 1031.117188 1115.125 C 1031.117188 1115.125 1031.496094 1115.375 1032.003906 1115.882812 C 1032.636719 1116.386719 1033.394531 1117.144531 1034.277344 1118.410156 C 1036.050781 1120.8125 1037.566406 1125.113281 1036.808594 1130.550781 C 1036.175781 1135.984375 1032.507812 1142.054688 1026.691406 1146.101562 C 1020.875 1150.273438 1013.289062 1152.800781 1005.324219 1154.066406 C 989.394531 1156.46875 974.976562 1155.710938 964.609375 1154.445312 C 959.425781 1153.8125 955.253906 1152.929688 952.472656 1152.296875 C 949.691406 1151.410156 948.171875 1151.03125 948.171875 1151.03125 Z M 948.171875 1151.03125 " fill-opacity="1" fill-rule="nonzero"/><path fill="#7dd3f2" d="M 1016.199219 1179.734375 C 1016.199219 1179.734375 1016.324219 1179.734375 1016.578125 1179.609375 C 1016.832031 1179.480469 1017.210938 1179.355469 1017.589844 1179.230469 C 1018.472656 1178.847656 1019.613281 1178.21875 1020.875 1177.078125 C 1022.140625 1176.066406 1023.40625 1174.425781 1024.417969 1172.527344 C 1025.429688 1170.628906 1026.058594 1168.226562 1026.058594 1165.824219 C 1025.933594 1163.296875 1025.175781 1161.019531 1024.164062 1159.25 C 1023.027344 1157.355469 1021.636719 1155.964844 1020.371094 1154.953125 C 1019.105469 1153.941406 1017.839844 1153.308594 1016.957031 1152.929688 C 1016.578125 1152.675781 1016.199219 1152.675781 1015.945312 1152.550781 C 1015.691406 1152.421875 1015.566406 1152.421875 1015.566406 1152.421875 C 1015.566406 1152.421875 1015.691406 1152.421875 1015.945312 1152.550781 C 1016.199219 1152.550781 1016.578125 1152.675781 1016.957031 1152.800781 C 1017.839844 1153.054688 1019.234375 1153.5625 1020.625 1154.445312 C 1022.015625 1155.332031 1023.65625 1156.847656 1024.921875 1158.746094 C 1026.1875 1160.640625 1027.070312 1163.171875 1027.199219 1165.824219 C 1027.199219 1168.480469 1026.441406 1171.011719 1025.300781 1173.03125 C 1024.164062 1175.054688 1022.644531 1176.574219 1021.253906 1177.585938 C 1019.863281 1178.597656 1018.601562 1179.101562 1017.714844 1179.480469 C 1017.210938 1179.609375 1016.957031 1179.734375 1016.703125 1179.734375 C 1016.324219 1179.734375 1016.199219 1179.734375 1016.199219 1179.734375 Z M 1016.199219 1179.734375 " fill-opacity="1" fill-rule="nonzero"/><path fill="#7dd3f2" d="M 967.898438 1236.632812 C 967.898438 1236.632812 968.277344 1236.757812 969.164062 1237.011719 C 970.046875 1237.265625 971.3125 1237.515625 972.957031 1237.644531 C 974.597656 1237.769531 976.621094 1237.769531 978.898438 1237.390625 C 981.175781 1237.011719 983.703125 1236.125 986.105469 1234.734375 C 987.371094 1233.976562 988.507812 1233.09375 989.644531 1232.082031 C 990.785156 1230.941406 991.921875 1229.804688 993.4375 1228.539062 C 994.828125 1227.277344 996.851562 1226.265625 998.875 1225.886719 C 1000.898438 1225.378906 1002.921875 1225.378906 1004.945312 1225.253906 C 1006.839844 1225.125 1008.738281 1225 1010.382812 1224.367188 C 1012.027344 1223.734375 1013.667969 1222.722656 1015.1875 1221.460938 C 1018.09375 1218.929688 1020.496094 1215.265625 1022.265625 1211.34375 C 1023.152344 1209.449219 1023.785156 1207.296875 1024.417969 1205.273438 C 1024.921875 1203.253906 1025.300781 1201.230469 1025.300781 1199.207031 C 1025.554688 1195.160156 1024.796875 1191.367188 1023.152344 1188.078125 C 1022.265625 1186.5625 1021.253906 1185.042969 1020.117188 1183.78125 C 1018.851562 1182.515625 1017.589844 1181.503906 1016.199219 1180.492188 C 1013.417969 1178.597656 1010.382812 1177.207031 1007.726562 1175.816406 C 1002.414062 1173.160156 997.992188 1171.011719 994.957031 1169.617188 C 991.921875 1168.226562 990.277344 1167.46875 990.277344 1167.46875 C 990.277344 1167.46875 992.046875 1167.976562 995.207031 1168.988281 C 998.371094 1170 1002.921875 1171.640625 1008.484375 1173.917969 C 1011.265625 1175.054688 1014.300781 1176.320312 1017.460938 1178.089844 C 1019.105469 1178.976562 1020.625 1180.113281 1022.140625 1181.378906 C 1023.65625 1182.769531 1024.921875 1184.414062 1026.058594 1186.308594 C 1028.210938 1190.101562 1029.222656 1194.652344 1029.09375 1199.207031 C 1029.09375 1201.480469 1028.714844 1203.757812 1028.210938 1206.035156 C 1027.703125 1208.308594 1026.945312 1210.585938 1025.933594 1212.734375 C 1023.910156 1217.160156 1021.253906 1221.082031 1017.714844 1224.113281 C 1015.945312 1225.632812 1013.796875 1226.898438 1011.644531 1227.527344 C 1009.371094 1228.289062 1007.09375 1228.414062 1005.070312 1228.414062 C 1003.046875 1228.414062 1001.277344 1228.414062 999.632812 1228.667969 C 997.992188 1228.917969 996.601562 1229.550781 995.335938 1230.5625 C 993.945312 1231.449219 992.804688 1232.710938 991.414062 1233.722656 C 990.152344 1234.734375 988.632812 1235.746094 987.242188 1236.378906 C 984.460938 1237.769531 981.679688 1238.402344 979.152344 1238.527344 C 976.75 1238.65625 974.597656 1238.527344 972.957031 1238.148438 C 971.3125 1237.769531 970.046875 1237.265625 969.289062 1237.011719 C 968.277344 1236.757812 967.898438 1236.632812 967.898438 1236.632812 Z M 967.898438 1236.632812 " fill-opacity="1" fill-rule="nonzero"/><path fill="#7dd3f2" d="M 939.070312 1241.691406 C 939.070312 1241.691406 939.703125 1243.714844 940.332031 1247.378906 C 940.714844 1249.148438 941.09375 1251.425781 941.976562 1253.703125 C 942.484375 1254.839844 943.242188 1255.976562 944.253906 1256.738281 C 945.265625 1257.621094 946.53125 1258.128906 948.046875 1258.253906 C 950.953125 1258.507812 954.242188 1257.242188 957.023438 1254.964844 C 959.804688 1252.5625 962.207031 1249.402344 963.976562 1245.734375 C 965.75 1241.941406 966.886719 1237.769531 967.519531 1233.21875 C 968.152344 1228.667969 968.152344 1223.863281 968.023438 1218.804688 C 967.769531 1208.6875 967.644531 1199.078125 966.632812 1190.609375 C 965.621094 1182.011719 963.472656 1174.550781 960.5625 1168.734375 C 957.65625 1162.917969 954.117188 1158.871094 951.207031 1156.722656 C 949.816406 1155.585938 948.550781 1154.824219 947.667969 1154.320312 C 946.78125 1153.8125 946.402344 1153.6875 946.402344 1153.6875 C 946.402344 1153.6875 946.910156 1153.8125 947.792969 1154.195312 C 948.679688 1154.574219 950.070312 1155.078125 951.585938 1156.089844 C 954.746094 1157.988281 959.046875 1161.78125 962.585938 1167.597656 C 966.128906 1173.414062 968.910156 1181.125 970.425781 1189.976562 C 971.945312 1198.828125 972.324219 1208.5625 972.574219 1218.679688 C 972.703125 1223.734375 972.574219 1228.917969 971.816406 1233.722656 C 971.058594 1238.65625 969.542969 1243.332031 967.390625 1247.378906 C 965.242188 1251.425781 962.335938 1254.964844 958.921875 1257.367188 C 957.148438 1258.632812 955.378906 1259.519531 953.484375 1260.148438 C 951.585938 1260.65625 949.5625 1260.910156 947.792969 1260.53125 C 945.898438 1260.148438 944.253906 1259.265625 943.117188 1258.128906 C 941.976562 1256.988281 941.21875 1255.472656 940.714844 1254.207031 C 939.828125 1251.550781 939.828125 1249.277344 939.703125 1247.378906 C 939.449219 1243.714844 939.070312 1241.691406 939.070312 1241.691406 Z M 939.070312 1241.691406 " fill-opacity="1" fill-rule="nonzero"/><path fill="#7dd3f2" d="M 914.289062 1206.667969 C 914.289062 1206.667969 913.78125 1207.929688 912.769531 1210.078125 C 911.757812 1212.230469 910.492188 1215.515625 908.976562 1219.5625 C 907.460938 1223.609375 905.941406 1228.414062 904.675781 1233.976562 C 904.046875 1236.757812 903.414062 1239.667969 902.78125 1242.574219 C 902.273438 1245.609375 901.769531 1248.644531 901.769531 1251.804688 C 901.769531 1254.839844 902.527344 1257.875 904.296875 1259.898438 C 905.183594 1260.910156 906.195312 1261.792969 907.207031 1261.921875 C 907.710938 1262.046875 907.964844 1261.921875 908.597656 1261.667969 C 909.101562 1261.414062 909.734375 1261.035156 910.367188 1260.53125 C 913.023438 1258.886719 915.929688 1258.253906 918.585938 1258.128906 C 921.242188 1258 923.769531 1258.757812 925.792969 1259.644531 C 927.816406 1260.402344 929.585938 1261.160156 931.230469 1261.542969 C 932.875 1261.921875 934.265625 1261.921875 935.402344 1261.667969 C 936.539062 1261.414062 937.425781 1261.035156 937.929688 1260.65625 C 938.183594 1260.53125 938.4375 1260.277344 938.4375 1260.148438 C 938.5625 1260.023438 938.5625 1260.023438 938.5625 1260.023438 C 938.5625 1260.023438 938.5625 1260.148438 938.4375 1260.148438 C 938.3125 1260.277344 938.183594 1260.402344 937.929688 1260.65625 C 937.425781 1261.035156 936.667969 1261.667969 935.402344 1262.046875 C 934.265625 1262.425781 932.621094 1262.550781 930.851562 1262.300781 C 929.082031 1262.046875 927.183594 1261.414062 925.160156 1260.78125 C 923.136719 1260.148438 920.863281 1259.769531 918.585938 1259.898438 C 916.183594 1260.148438 913.78125 1260.910156 911.503906 1262.300781 C 911 1262.679688 910.367188 1263.183594 909.609375 1263.5625 C 908.851562 1264.070312 907.710938 1264.324219 906.699219 1264.195312 C 905.6875 1264.070312 904.804688 1263.691406 904.046875 1263.183594 C 903.285156 1262.679688 902.65625 1262.046875 902.023438 1261.414062 C 900.882812 1260.023438 900 1258.378906 899.492188 1256.738281 C 898.988281 1255.09375 898.734375 1253.324219 898.734375 1251.550781 C 898.609375 1248.011719 899.242188 1244.722656 899.871094 1241.691406 C 900.503906 1238.65625 901.265625 1235.621094 902.148438 1232.964844 C 903.792969 1227.402344 905.6875 1222.597656 907.585938 1218.679688 C 909.355469 1214.757812 911.125 1211.597656 912.265625 1209.574219 C 912.894531 1208.5625 913.402344 1207.675781 913.65625 1207.171875 C 914.160156 1207.046875 914.289062 1206.667969 914.289062 1206.667969 Z M 914.289062 1206.667969 " fill-opacity="1" fill-rule="nonzero"/><path fill="#7dd3f2" d="M 900.503906 1250.414062 C 900.503906 1250.414062 900.378906 1250.160156 900 1249.53125 C 899.621094 1249.023438 899.113281 1248.265625 898.355469 1247.253906 C 896.839844 1245.484375 893.929688 1243.332031 889.882812 1242.195312 C 887.859375 1241.691406 885.585938 1241.4375 883.183594 1241.691406 C 880.78125 1241.816406 877.871094 1242.320312 874.710938 1241.4375 C 873.195312 1240.929688 871.675781 1240.171875 870.414062 1239.035156 C 869.148438 1237.898438 868.136719 1236.632812 867.25 1235.113281 C 865.609375 1232.207031 864.597656 1228.917969 863.964844 1225.632812 C 862.824219 1219.058594 862.320312 1212.734375 862.320312 1206.917969 C 862.320312 1204.011719 862.445312 1201.355469 862.574219 1198.699219 C 862.699219 1196.171875 863.078125 1193.769531 863.457031 1191.621094 C 864.34375 1187.320312 866.113281 1184.035156 868.011719 1182.261719 C 868.894531 1181.378906 869.652344 1180.871094 870.285156 1180.492188 C 870.792969 1180.238281 871.171875 1179.988281 871.171875 1179.988281 C 871.171875 1179.988281 870.917969 1180.238281 870.414062 1180.492188 C 869.90625 1180.871094 869.148438 1181.503906 868.515625 1182.390625 C 867 1184.160156 865.609375 1187.445312 865.101562 1191.621094 C 864.847656 1193.769531 864.722656 1196.046875 864.722656 1198.574219 C 864.722656 1201.101562 864.722656 1203.757812 864.847656 1206.539062 C 865.101562 1212.230469 865.734375 1218.425781 867 1224.746094 C 867.628906 1227.90625 868.515625 1230.816406 869.90625 1233.34375 C 871.296875 1235.875 873.195312 1237.769531 875.597656 1238.65625 C 878 1239.414062 880.652344 1239.289062 883.183594 1239.289062 C 885.839844 1239.289062 888.367188 1239.667969 890.390625 1240.425781 C 894.6875 1241.941406 897.34375 1244.597656 898.734375 1246.621094 C 899.492188 1247.632812 899.871094 1248.519531 900.125 1249.023438 C 900.378906 1250.035156 900.503906 1250.414062 900.503906 1250.414062 Z M 900.503906 1250.414062 " fill-opacity="1" fill-rule="nonzero"/><path fill="#7dd3f2" d="M 845.882812 1148.628906 C 845.882812 1148.628906 845.378906 1148.757812 844.492188 1149.007812 C 843.605469 1149.261719 842.34375 1149.640625 840.699219 1150.398438 C 839.183594 1151.160156 837.285156 1152.296875 835.386719 1153.8125 C 833.492188 1155.332031 831.59375 1157.480469 830.078125 1160.007812 C 829.699219 1160.640625 829.320312 1161.273438 828.941406 1162.03125 C 828.5625 1162.792969 828.308594 1163.550781 828.054688 1164.183594 C 827.800781 1164.941406 827.800781 1165.574219 827.929688 1166.078125 C 828.054688 1166.585938 828.5625 1167.214844 829.066406 1167.976562 C 831.089844 1170.757812 834.125 1173.03125 837.664062 1174.675781 C 841.203125 1176.320312 845.25 1177.207031 849.675781 1177.585938 C 853.976562 1177.964844 858.652344 1177.835938 863.457031 1177.710938 C 873.066406 1177.457031 882.046875 1177.207031 889.757812 1174.804688 C 893.675781 1173.664062 896.964844 1172.023438 900 1170 C 903.035156 1167.976562 905.6875 1165.953125 908.34375 1164.054688 C 913.402344 1160.261719 917.828125 1157.480469 921.242188 1156.34375 C 922.125 1155.964844 922.886719 1155.835938 923.515625 1155.585938 C 924.148438 1155.332031 924.78125 1155.203125 925.160156 1155.203125 C 926.046875 1155.078125 926.550781 1154.953125 926.550781 1154.953125 C 926.550781 1154.953125 926.046875 1155.078125 925.160156 1155.332031 C 924.65625 1155.457031 924.148438 1155.585938 923.515625 1155.964844 C 922.886719 1156.214844 922.125 1156.46875 921.367188 1156.976562 C 918.207031 1158.492188 914.160156 1161.527344 909.484375 1165.824219 C 907.082031 1167.976562 904.550781 1170.25 901.515625 1172.527344 C 898.480469 1174.804688 894.816406 1176.953125 890.769531 1178.34375 C 882.550781 1181.378906 873.066406 1181.882812 863.457031 1182.136719 C 858.652344 1182.261719 853.847656 1182.261719 849.171875 1181.757812 C 844.492188 1181.25 839.941406 1179.988281 836.019531 1177.964844 C 832.101562 1175.941406 828.6875 1173.03125 826.539062 1169.746094 C 826.03125 1168.988281 825.398438 1167.976562 825.148438 1166.835938 C 824.894531 1165.574219 825.148438 1164.433594 825.527344 1163.550781 C 825.90625 1162.664062 826.285156 1161.90625 826.789062 1161.148438 C 827.167969 1160.390625 827.675781 1159.628906 828.179688 1159 C 832.101562 1153.6875 837.03125 1151.160156 840.320312 1150.019531 C 841.964844 1149.390625 843.355469 1149.136719 844.238281 1149.007812 C 845.378906 1148.757812 845.882812 1148.628906 845.882812 1148.628906 Z M 845.882812 1148.628906 " fill-opacity="1" fill-rule="nonzero"/><g clip-path="url(#5ba3a2fd1e)"><path fill="#7dd3f2" d="M 868.894531 1110.320312 C 868.894531 1110.320312 867 1110.191406 863.710938 1109.9375 C 860.296875 1109.6875 855.492188 1109.308594 849.421875 1108.929688 C 846.390625 1108.800781 843.226562 1108.675781 839.6875 1108.929688 C 836.273438 1109.179688 832.605469 1109.8125 829.191406 1111.203125 C 825.777344 1112.59375 822.363281 1114.871094 819.960938 1117.90625 C 817.558594 1120.941406 816.167969 1124.859375 816.550781 1128.90625 C 816.929688 1132.953125 818.953125 1136.617188 821.859375 1139.148438 C 824.894531 1141.675781 828.6875 1143.191406 832.355469 1144.332031 C 839.8125 1146.734375 846.769531 1147.996094 852.710938 1148.882812 C 858.652344 1149.769531 863.457031 1150.273438 866.871094 1150.652344 C 870.160156 1151.03125 872.054688 1151.285156 872.054688 1151.285156 C 872.054688 1151.285156 870.160156 1151.285156 866.871094 1151.285156 C 863.457031 1151.285156 858.652344 1151.285156 852.585938 1150.90625 C 846.515625 1150.527344 839.308594 1149.769531 831.46875 1147.617188 C 827.550781 1146.480469 823.25 1145.089844 819.457031 1142.179688 C 815.664062 1139.273438 813.007812 1134.46875 812.503906 1129.285156 C 812.25 1126.757812 812.503906 1124.101562 813.386719 1121.699219 C 814.148438 1119.296875 815.410156 1117.144531 816.929688 1115.375 C 820.089844 1111.710938 824.007812 1109.433594 827.929688 1107.917969 C 831.976562 1106.527344 835.894531 1106.019531 839.5625 1106.019531 C 843.226562 1106.019531 846.515625 1106.398438 849.550781 1106.777344 C 855.617188 1107.664062 860.296875 1108.546875 863.710938 1109.179688 C 867.125 1109.9375 868.894531 1110.320312 868.894531 1110.320312 Z M 868.894531 1110.320312 " fill-opacity="1" fill-rule="nonzero"/></g><path fill="#7dd3f2" d="M 889.757812 1081.492188 C 889.757812 1081.492188 888.871094 1081.363281 887.230469 1081.238281 C 885.585938 1081.109375 883.183594 1080.984375 880.273438 1080.859375 C 877.367188 1080.730469 873.828125 1080.605469 869.90625 1080.605469 C 865.988281 1080.605469 861.6875 1080.605469 857.640625 1082.121094 C 855.617188 1082.882812 853.976562 1084.019531 852.710938 1085.535156 C 851.445312 1087.054688 850.433594 1088.824219 849.550781 1090.46875 C 848.03125 1094.007812 846.894531 1097.421875 845.757812 1100.078125 C 843.605469 1105.640625 842.214844 1109.054688 842.214844 1109.054688 C 842.214844 1109.054688 843.101562 1105.515625 844.871094 1099.824219 C 845.25 1098.433594 845.757812 1096.789062 846.261719 1095.144531 C 846.769531 1093.503906 847.273438 1091.730469 848.03125 1089.835938 C 848.792969 1087.9375 849.800781 1086.042969 851.195312 1084.273438 C 852.585938 1082.5 854.609375 1080.984375 856.882812 1080.226562 C 859.160156 1079.339844 861.433594 1079.089844 863.585938 1078.960938 C 865.734375 1078.835938 867.882812 1078.960938 869.78125 1078.960938 C 873.699219 1079.089844 877.238281 1079.46875 880.273438 1079.847656 C 883.183594 1080.226562 885.585938 1080.605469 887.230469 1080.984375 C 888.871094 1081.363281 889.757812 1081.492188 889.757812 1081.492188 Z M 889.757812 1081.492188 " fill-opacity="1" fill-rule="nonzero"/><path fill="#7dd3f2" d="M 926.679688 1591.675781 C 926.679688 1591.675781 926.300781 1586.746094 925.917969 1577.894531 C 925.539062 1569.042969 925.160156 1556.148438 925.539062 1540.089844 C 925.917969 1524.15625 926.929688 1505.191406 929.460938 1484.074219 C 930.722656 1473.582031 932.367188 1462.582031 934.390625 1451.328125 C 936.414062 1439.949219 938.816406 1428.316406 941.472656 1416.558594 C 944.128906 1404.671875 946.65625 1393.292969 948.804688 1382.164062 C 951.082031 1371.039062 953.105469 1360.289062 954.875 1349.921875 C 958.414062 1329.3125 961.195312 1310.726562 963.347656 1294.921875 C 965.496094 1279.242188 966.886719 1266.472656 967.898438 1257.621094 C 968.910156 1248.769531 969.414062 1243.839844 969.414062 1243.839844 C 969.414062 1243.839844 969.542969 1248.769531 969.667969 1257.621094 C 969.667969 1266.472656 969.542969 1279.371094 968.78125 1295.300781 C 968.023438 1311.230469 966.632812 1330.199219 963.976562 1351.0625 C 962.714844 1361.554688 961.070312 1372.554688 959.046875 1383.808594 C 957.148438 1395.1875 954.746094 1406.820312 952.09375 1418.707031 C 949.4375 1430.589844 946.910156 1441.972656 944.632812 1453.097656 C 942.355469 1464.226562 940.332031 1474.972656 938.5625 1485.214844 C 935.148438 1505.824219 932.621094 1524.410156 930.976562 1540.214844 C 929.332031 1556.019531 928.320312 1568.789062 927.691406 1577.640625 C 927.058594 1586.746094 926.679688 1591.675781 926.679688 1591.675781 Z M 926.679688 1591.675781 " fill-opacity="1" fill-rule="nonzero"/><path fill="#7dd3f2" d="M 1132.902344 1411.246094 C 1132.902344 1411.246094 1129.613281 1410.234375 1123.671875 1408.464844 C 1117.730469 1406.566406 1109.132812 1403.914062 1098.636719 1399.992188 C 1093.453125 1397.96875 1087.761719 1395.695312 1081.695312 1392.914062 C 1075.625 1390.128906 1069.429688 1386.96875 1062.980469 1383.050781 C 1061.335938 1382.039062 1059.691406 1381.152344 1058.175781 1380.015625 C 1056.53125 1378.878906 1055.015625 1377.867188 1053.371094 1376.726562 C 1050.210938 1374.324219 1046.921875 1372.050781 1043.886719 1369.269531 C 1043.128906 1368.636719 1042.371094 1368.003906 1041.484375 1367.246094 C 1040.726562 1366.488281 1039.96875 1365.855469 1039.210938 1365.09375 C 1037.691406 1363.703125 1036.175781 1362.1875 1034.785156 1360.542969 C 1033.394531 1358.898438 1031.875 1357.382812 1030.484375 1355.738281 C 1029.09375 1354.09375 1027.703125 1352.324219 1026.441406 1350.679688 C 1021.253906 1343.726562 1016.832031 1336.519531 1012.785156 1329.691406 C 1008.613281 1322.863281 1004.816406 1316.035156 1001.277344 1309.589844 C 994.199219 1296.691406 988.253906 1284.804688 983.578125 1274.691406 C 978.773438 1264.574219 975.230469 1256.355469 972.828125 1250.667969 C 970.425781 1244.976562 969.164062 1241.691406 969.164062 1241.691406 C 969.164062 1241.691406 970.804688 1244.722656 973.839844 1250.160156 C 976.875 1255.597656 981.300781 1263.4375 986.863281 1273.046875 C 992.425781 1282.65625 999.128906 1294.035156 1006.839844 1306.425781 C 1010.632812 1312.621094 1014.679688 1319.199219 1018.980469 1325.898438 C 1023.277344 1332.601562 1027.578125 1339.554688 1032.507812 1346.128906 C 1042.371094 1359.277344 1054.382812 1369.648438 1066.394531 1377.613281 C 1072.335938 1381.660156 1078.28125 1385.199219 1083.96875 1388.234375 C 1089.660156 1391.394531 1095.097656 1394.050781 1100.027344 1396.453125 C 1110.015625 1401.257812 1118.234375 1404.796875 1123.925781 1407.328125 C 1129.742188 1409.855469 1132.902344 1411.246094 1132.902344 1411.246094 Z M 1132.902344 1411.246094 " fill-opacity="1" fill-rule="nonzero"/><path fill="#7dd3f2" d="M 1349.242188 1610.769531 C 1349.242188 1610.769531 1349.113281 1609 1348.863281 1605.585938 C 1348.609375 1602.171875 1348.101562 1597.238281 1347.472656 1590.917969 C 1346.082031 1578.148438 1343.804688 1559.8125 1339.378906 1537.433594 C 1337.101562 1526.308594 1334.449219 1514.042969 1330.90625 1501.144531 C 1327.492188 1488.375 1323.066406 1474.84375 1316.871094 1461.695312 C 1310.675781 1448.546875 1302.207031 1435.902344 1290.699219 1426.167969 C 1279.320312 1416.304688 1264.398438 1410.234375 1248.34375 1407.328125 C 1232.15625 1404.417969 1215.59375 1404.925781 1199.535156 1406.316406 C 1191.445312 1407.074219 1183.476562 1407.957031 1175.640625 1408.96875 C 1167.800781 1409.855469 1160.085938 1410.742188 1152.878906 1412.003906 C 1145.671875 1413.269531 1138.71875 1414.785156 1132.269531 1416.808594 C 1125.695312 1418.960938 1119.375 1421.488281 1113.175781 1424.144531 C 1110.015625 1425.40625 1106.980469 1426.796875 1103.949219 1427.9375 C 1100.914062 1429.199219 1097.878906 1430.339844 1094.84375 1431.476562 C 1088.902344 1433.753906 1083.085938 1435.523438 1077.519531 1437.292969 C 1055.140625 1443.996094 1036.554688 1446.648438 1023.785156 1447.914062 C 1017.335938 1448.546875 1012.40625 1448.800781 1008.992188 1448.925781 C 1005.578125 1449.050781 1003.808594 1449.050781 1003.808594 1449.050781 C 1003.808594 1449.050781 1005.578125 1448.800781 1008.863281 1448.167969 C 1012.152344 1447.660156 1017.082031 1446.777344 1023.40625 1445.386719 C 1035.921875 1442.730469 1053.878906 1438.179688 1074.992188 1429.832031 C 1080.304688 1427.683594 1085.738281 1425.40625 1091.304688 1422.878906 C 1094.085938 1421.613281 1096.992188 1420.222656 1099.773438 1418.832031 C 1102.683594 1417.316406 1105.589844 1415.925781 1108.625 1414.40625 C 1114.695312 1411.371094 1121.144531 1408.210938 1128.097656 1405.429688 C 1135.179688 1402.648438 1142.636719 1400.625 1150.222656 1398.980469 C 1157.8125 1397.335938 1165.648438 1396.074219 1173.488281 1394.808594 C 1181.328125 1393.542969 1189.421875 1392.28125 1197.765625 1391.394531 C 1206.109375 1390.511719 1214.835938 1389.75 1223.6875 1389.75 C 1232.535156 1389.75 1241.765625 1390.257812 1250.871094 1391.902344 C 1259.972656 1393.542969 1268.953125 1396.074219 1277.421875 1399.992188 C 1281.597656 1401.890625 1285.640625 1404.039062 1289.5625 1406.566406 L 1292.46875 1408.464844 L 1295.25 1410.488281 L 1297.90625 1412.511719 C 1298.792969 1413.269531 1299.550781 1414.027344 1300.433594 1414.785156 C 1307.136719 1420.730469 1312.828125 1427.558594 1317.378906 1434.636719 C 1322.058594 1441.71875 1325.851562 1449.050781 1328.882812 1456.257812 C 1334.953125 1470.800781 1338.621094 1485.214844 1341.402344 1498.617188 C 1344.058594 1512.019531 1345.828125 1524.535156 1347.089844 1536.042969 C 1349.621094 1559.054688 1350 1577.769531 1349.875 1590.664062 C 1349.746094 1597.113281 1349.621094 1602.042969 1349.496094 1605.457031 C 1349.242188 1609 1349.242188 1610.769531 1349.242188 1610.769531 Z M 1349.242188 1610.769531 " fill-opacity="1" fill-rule="nonzero"/><path fill="#7dd3f2" d="M 1294.746094 1185.296875 C 1294.746094 1185.296875 1296.136719 1176.828125 1298.792969 1163.171875 C 1300.183594 1156.34375 1301.828125 1148.25 1303.722656 1139.273438 C 1305.621094 1130.296875 1307.769531 1120.558594 1308.652344 1110.191406 C 1309.539062 1099.824219 1308.527344 1090.089844 1306.125 1081.363281 C 1303.847656 1072.640625 1300.6875 1065.054688 1297.78125 1058.859375 C 1294.871094 1052.535156 1292.34375 1047.605469 1290.574219 1044.0625 C 1288.804688 1040.648438 1287.792969 1038.628906 1287.792969 1038.628906 C 1287.792969 1038.628906 1288.929688 1040.398438 1291.207031 1043.683594 C 1293.355469 1046.972656 1296.390625 1051.652344 1299.804688 1057.71875 C 1301.574219 1060.753906 1303.34375 1064.167969 1304.988281 1067.960938 C 1306.757812 1071.753906 1308.402344 1075.800781 1309.792969 1080.226562 C 1311.183594 1084.652344 1312.320312 1089.582031 1312.953125 1094.640625 C 1313.585938 1099.699219 1313.585938 1105.132812 1313.207031 1110.445312 C 1312.320312 1121.191406 1309.792969 1131.179688 1307.390625 1140.03125 C 1304.988281 1148.882812 1302.835938 1156.847656 1300.941406 1163.550781 C 1297.273438 1177.078125 1294.746094 1185.296875 1294.746094 1185.296875 Z M 1294.746094 1185.296875 " fill-opacity="1" fill-rule="nonzero"/><path fill="#7dd3f2" d="M 1292.34375 1182.261719 C 1292.34375 1182.261719 1293.226562 1185.296875 1294.492188 1190.859375 C 1295.628906 1196.425781 1297.273438 1204.515625 1298.03125 1214.757812 C 1298.792969 1224.875 1298.792969 1237.136719 1296.894531 1250.667969 C 1295 1264.070312 1291.457031 1278.738281 1285.261719 1293.277344 C 1283.871094 1296.945312 1282.101562 1300.359375 1280.457031 1303.898438 C 1279.574219 1305.667969 1278.6875 1307.3125 1277.800781 1308.957031 C 1276.917969 1310.601562 1276.03125 1312.242188 1275.019531 1313.886719 C 1271.226562 1320.210938 1267.5625 1326.027344 1264.652344 1331.84375 C 1261.746094 1337.65625 1259.59375 1343.472656 1257.824219 1349.039062 C 1256.054688 1354.601562 1254.539062 1359.910156 1253.398438 1364.84375 C 1250.996094 1374.578125 1249.859375 1382.671875 1249.101562 1388.234375 C 1248.722656 1391.015625 1248.46875 1393.164062 1248.34375 1394.683594 C 1248.214844 1396.199219 1248.089844 1396.957031 1248.089844 1396.957031 C 1248.089844 1396.957031 1248.089844 1396.199219 1247.960938 1394.683594 C 1247.960938 1393.164062 1247.960938 1391.015625 1247.960938 1388.109375 C 1248.089844 1382.417969 1248.46875 1374.199219 1249.984375 1364.085938 C 1250.746094 1359.027344 1251.757812 1353.589844 1253.273438 1347.648438 C 1254.789062 1341.832031 1256.6875 1335.636719 1259.34375 1329.3125 C 1262.125 1322.992188 1265.789062 1316.796875 1269.203125 1310.601562 C 1270.089844 1309.082031 1270.847656 1307.4375 1271.734375 1305.796875 C 1272.492188 1304.152344 1273.503906 1302.632812 1274.261719 1300.863281 C 1275.78125 1297.578125 1277.421875 1294.164062 1278.8125 1290.621094 C 1284.757812 1276.714844 1288.550781 1262.679688 1290.953125 1249.78125 C 1293.480469 1236.886719 1294.238281 1225 1294.367188 1214.882812 C 1294.492188 1204.894531 1293.734375 1196.675781 1293.226562 1191.113281 C 1292.722656 1185.296875 1292.34375 1182.261719 1292.34375 1182.261719 Z M 1292.34375 1182.261719 " fill-opacity="1" fill-rule="nonzero"/><path fill="#7dd3f2" d="M 1305.238281 1141.421875 C 1305.238281 1141.421875 1304.230469 1141.675781 1302.332031 1142.179688 C 1300.433594 1142.6875 1297.90625 1143.445312 1294.746094 1144.457031 C 1291.710938 1145.59375 1288.171875 1146.988281 1284.628906 1148.757812 C 1280.964844 1150.527344 1277.296875 1152.800781 1273.503906 1155.332031 C 1266.042969 1160.261719 1259.847656 1166.207031 1255.550781 1171.136719 C 1253.398438 1173.539062 1251.757812 1175.6875 1250.617188 1177.207031 C 1249.480469 1178.722656 1248.847656 1179.609375 1248.847656 1179.609375 C 1248.847656 1179.609375 1248.722656 1178.46875 1248.847656 1176.574219 C 1248.972656 1174.550781 1249.355469 1171.769531 1250.363281 1168.355469 C 1251.375 1164.941406 1253.019531 1160.894531 1255.675781 1156.847656 C 1258.332031 1152.800781 1262.125 1148.757812 1266.800781 1145.59375 C 1271.480469 1142.433594 1276.664062 1140.410156 1281.34375 1139.398438 C 1286.148438 1138.386719 1290.445312 1138.386719 1293.988281 1138.640625 C 1297.527344 1139.019531 1300.308594 1139.777344 1302.207031 1140.410156 C 1304.230469 1140.917969 1305.238281 1141.421875 1305.238281 1141.421875 Z M 1305.238281 1141.421875 " fill-opacity="1" fill-rule="nonzero"/><path fill="#7dd3f2" d="M 1300.433594 1169.113281 C 1300.433594 1169.113281 1299.675781 1168.859375 1298.414062 1168.355469 C 1297.148438 1167.847656 1295.25 1167.214844 1292.847656 1166.710938 C 1288.171875 1165.699219 1281.46875 1165.320312 1274.390625 1166.835938 C 1267.308594 1168.226562 1261.113281 1171.011719 1256.8125 1173.285156 C 1254.664062 1174.425781 1252.894531 1175.433594 1251.757812 1176.195312 C 1250.617188 1176.953125 1249.859375 1177.332031 1249.859375 1177.332031 C 1249.859375 1177.332031 1250.363281 1176.828125 1251.375 1175.816406 C 1252.386719 1174.804688 1253.90625 1173.539062 1255.929688 1172.019531 C 1259.847656 1168.988281 1266.042969 1165.320312 1273.757812 1163.675781 C 1281.46875 1162.160156 1288.675781 1163.296875 1293.355469 1165.195312 C 1295.757812 1166.078125 1297.527344 1167.089844 1298.664062 1167.976562 C 1299.804688 1168.609375 1300.433594 1169.113281 1300.433594 1169.113281 Z M 1300.433594 1169.113281 " fill-opacity="1" fill-rule="nonzero"/><path fill="#7dd3f2" d="M 1296.894531 1179.355469 C 1296.894531 1179.355469 1297.023438 1179.480469 1297.023438 1179.859375 C 1297.023438 1180.238281 1296.894531 1180.746094 1296.390625 1181.25 C 1295.882812 1181.757812 1295.25 1182.136719 1294.367188 1182.515625 C 1293.480469 1182.894531 1292.46875 1183.148438 1291.332031 1183.527344 C 1286.90625 1184.792969 1280.585938 1186.308594 1273.503906 1186.816406 C 1266.421875 1187.320312 1259.972656 1186.816406 1255.421875 1186.183594 C 1253.148438 1185.929688 1251.25 1185.550781 1249.984375 1185.296875 C 1248.722656 1185.042969 1248.089844 1184.917969 1248.089844 1184.917969 C 1248.089844 1184.917969 1248.847656 1185.042969 1250.113281 1185.171875 C 1251.375 1185.296875 1253.273438 1185.425781 1255.550781 1185.550781 C 1260.101562 1185.804688 1266.421875 1185.929688 1273.378906 1185.425781 C 1280.332031 1184.917969 1286.527344 1183.90625 1291.078125 1183.023438 C 1292.21875 1182.769531 1293.226562 1182.640625 1294.113281 1182.390625 C 1295 1182.136719 1295.628906 1181.757812 1296.136719 1181.378906 C 1296.640625 1181 1296.769531 1180.492188 1296.894531 1180.238281 C 1297.023438 1179.609375 1296.894531 1179.355469 1296.894531 1179.355469 Z M 1296.894531 1179.355469 " fill-opacity="1" fill-rule="nonzero"/><path fill="#7dd3f2" d="M 1266.929688 1186.816406 C 1266.929688 1186.816406 1267.308594 1186.6875 1267.941406 1186.4375 C 1268.574219 1186.183594 1269.332031 1185.675781 1270.214844 1184.917969 C 1271.988281 1183.527344 1273.628906 1180.871094 1274.390625 1177.710938 C 1275.019531 1174.550781 1274.769531 1171.261719 1274.515625 1169.113281 C 1274.261719 1166.964844 1274.007812 1165.445312 1274.007812 1165.445312 C 1274.007812 1165.445312 1274.136719 1165.824219 1274.515625 1166.332031 C 1274.769531 1166.964844 1275.148438 1167.847656 1275.527344 1168.988281 C 1276.285156 1171.261719 1277.171875 1174.550781 1276.410156 1178.21875 C 1275.652344 1182.011719 1272.996094 1184.792969 1270.847656 1185.929688 C 1269.710938 1186.5625 1268.699219 1186.816406 1268.066406 1186.816406 C 1267.308594 1186.941406 1266.929688 1186.816406 1266.929688 1186.816406 Z M 1266.929688 1186.816406 " fill-opacity="1" fill-rule="nonzero"/><path fill="#7dd3f2" d="M 1263.640625 1186.816406 C 1263.640625 1186.816406 1264.273438 1186.6875 1265.160156 1186.4375 C 1266.171875 1186.183594 1267.308594 1185.675781 1268.574219 1184.917969 C 1271.226562 1183.527344 1273.757812 1180.871094 1274.894531 1177.710938 C 1275.90625 1174.550781 1275.527344 1171.261719 1275.148438 1169.113281 C 1274.769531 1166.964844 1274.390625 1165.445312 1274.390625 1165.445312 C 1274.390625 1165.445312 1274.640625 1165.824219 1275.148438 1166.332031 C 1275.527344 1166.964844 1276.160156 1167.847656 1276.664062 1168.988281 C 1277.800781 1171.261719 1279.195312 1174.550781 1278.054688 1178.21875 C 1276.917969 1182.011719 1272.871094 1184.792969 1269.585938 1185.929688 C 1267.8125 1186.5625 1266.296875 1186.816406 1265.410156 1186.816406 C 1264.148438 1186.941406 1263.640625 1186.816406 1263.640625 1186.816406 Z M 1263.640625 1186.816406 " fill-opacity="1" fill-rule="nonzero"/><path fill="#7dd3f2" d="M 1219.007812 1273.933594 C 1219.007812 1273.933594 1218.882812 1273.933594 1218.503906 1274.058594 C 1218.121094 1274.183594 1217.617188 1274.3125 1216.984375 1274.4375 C 1215.71875 1274.816406 1213.949219 1275.574219 1211.925781 1277.09375 C 1209.902344 1278.609375 1207.753906 1280.886719 1206.617188 1284.046875 C 1206.109375 1285.566406 1205.730469 1287.460938 1205.984375 1289.230469 C 1206.238281 1291 1207.121094 1292.773438 1208.386719 1294.289062 C 1209.652344 1295.804688 1211.546875 1297.070312 1213.445312 1297.578125 C 1214.457031 1297.828125 1215.46875 1297.957031 1216.480469 1297.828125 C 1217.492188 1297.703125 1218.375 1297.324219 1219.261719 1296.691406 C 1220.144531 1296.058594 1221.15625 1295.300781 1222.167969 1294.289062 C 1223.308594 1293.402344 1224.445312 1292.390625 1226.089844 1291.507812 C 1227.605469 1290.621094 1229.882812 1290.371094 1231.777344 1290.621094 C 1233.675781 1291 1235.191406 1291.632812 1236.457031 1292.140625 C 1238.984375 1293.023438 1241.515625 1293.402344 1244.296875 1293.152344 C 1247.078125 1292.898438 1249.734375 1292.011719 1252.261719 1290.621094 C 1254.789062 1289.230469 1256.941406 1287.335938 1258.582031 1284.933594 C 1259.46875 1283.792969 1259.972656 1282.53125 1260.605469 1281.140625 C 1260.859375 1280.378906 1260.984375 1279.75 1261.238281 1278.988281 C 1261.367188 1278.230469 1261.492188 1277.472656 1261.617188 1276.839844 C 1262.25 1270.769531 1260.355469 1264.574219 1257.953125 1258.757812 C 1255.550781 1252.816406 1252.640625 1247.253906 1250.363281 1241.4375 C 1245.941406 1229.804688 1244.421875 1218.679688 1244.421875 1209.449219 C 1244.421875 1200.21875 1245.6875 1192.757812 1246.824219 1187.828125 C 1247.457031 1185.296875 1247.960938 1183.402344 1248.46875 1182.136719 C 1248.847656 1180.871094 1249.101562 1180.238281 1249.101562 1180.238281 C 1249.101562 1180.238281 1248.972656 1180.871094 1248.722656 1182.261719 C 1248.46875 1183.527344 1248.214844 1185.550781 1247.835938 1188.078125 C 1247.203125 1193.136719 1246.699219 1200.46875 1247.582031 1209.449219 C 1248.34375 1218.296875 1250.617188 1228.917969 1255.296875 1239.667969 C 1257.570312 1244.976562 1260.734375 1250.539062 1263.515625 1256.609375 C 1264.90625 1259.644531 1266.171875 1262.933594 1267.054688 1266.472656 C 1267.941406 1270.011719 1268.445312 1273.804688 1267.941406 1277.726562 C 1267.8125 1278.738281 1267.5625 1279.621094 1267.433594 1280.632812 C 1267.179688 1281.519531 1266.929688 1282.53125 1266.550781 1283.414062 C 1265.789062 1285.3125 1264.90625 1287.082031 1263.769531 1288.597656 C 1261.492188 1291.761719 1258.582031 1294.289062 1255.296875 1295.933594 C 1252.007812 1297.703125 1248.46875 1298.714844 1244.929688 1298.839844 C 1241.386719 1299.09375 1237.722656 1298.335938 1234.6875 1297.070312 C 1233.296875 1296.4375 1232.03125 1295.933594 1231.019531 1295.679688 C 1230.007812 1295.425781 1229.25 1295.554688 1228.238281 1295.933594 C 1226.214844 1296.691406 1224.191406 1298.839844 1221.535156 1300.359375 C 1220.144531 1301.117188 1218.503906 1301.621094 1216.984375 1301.75 C 1215.339844 1301.875 1213.824219 1301.496094 1212.433594 1301.117188 C 1209.652344 1300.105469 1207.5 1298.335938 1206.109375 1296.1875 C 1204.59375 1294.164062 1203.707031 1291.761719 1203.582031 1289.484375 C 1203.457031 1287.207031 1204.085938 1285.058594 1204.847656 1283.289062 C 1206.488281 1279.75 1209.144531 1277.597656 1211.421875 1276.335938 C 1213.699219 1275.070312 1215.59375 1274.4375 1216.984375 1274.183594 C 1217.617188 1274.058594 1218.121094 1273.933594 1218.503906 1273.933594 C 1218.753906 1273.933594 1219.007812 1273.933594 1219.007812 1273.933594 Z M 1219.007812 1273.933594 " fill-opacity="1" fill-rule="nonzero"/><path fill="#7dd3f2" d="M 1183.351562 1191.621094 C 1183.351562 1191.621094 1183.097656 1191.367188 1182.464844 1191.113281 C 1181.960938 1190.734375 1181.203125 1190.230469 1180.0625 1189.597656 C 1177.914062 1188.332031 1174.753906 1186.941406 1170.582031 1185.929688 C 1166.410156 1184.917969 1161.351562 1184.285156 1155.660156 1184.160156 C 1152.878906 1184.035156 1149.84375 1184.035156 1146.683594 1184.035156 C 1143.523438 1184.035156 1140.363281 1184.035156 1136.949219 1184.035156 C 1130.375 1184.035156 1124.304688 1184.539062 1118.867188 1185.929688 C 1113.429688 1187.320312 1108.371094 1188.964844 1104.199219 1190.101562 C 1095.730469 1192.503906 1090.417969 1193.769531 1090.417969 1193.769531 C 1090.417969 1193.769531 1095.222656 1191.113281 1103.1875 1187.445312 C 1107.234375 1185.550781 1111.914062 1183.273438 1117.601562 1181.25 C 1120.382812 1180.238281 1123.546875 1179.480469 1126.832031 1178.976562 C 1130.121094 1178.46875 1133.535156 1178.34375 1136.949219 1178.21875 C 1140.363281 1178.21875 1143.648438 1178.34375 1146.8125 1178.46875 C 1149.972656 1178.597656 1153.132812 1178.847656 1156.039062 1179.230469 C 1161.984375 1179.988281 1167.292969 1181.378906 1171.464844 1183.148438 C 1175.640625 1184.917969 1178.671875 1187.195312 1180.445312 1188.839844 C 1181.328125 1189.722656 1181.960938 1190.355469 1182.464844 1190.859375 C 1183.097656 1191.367188 1183.351562 1191.621094 1183.351562 1191.621094 Z M 1183.351562 1191.621094 " fill-opacity="1" fill-rule="nonzero"/><path fill="#7dd3f2" d="M 1192.078125 1165.699219 C 1192.078125 1165.699219 1192.203125 1166.207031 1192.328125 1166.964844 C 1192.457031 1167.34375 1192.582031 1167.976562 1192.582031 1168.609375 C 1192.582031 1169.238281 1192.707031 1170 1192.835938 1170.757812 C 1193.085938 1174.042969 1192.707031 1178.976562 1190.683594 1184.664062 C 1188.664062 1190.355469 1184.742188 1196.675781 1178.546875 1201.863281 C 1172.351562 1207.171875 1164.007812 1210.839844 1154.777344 1212.355469 C 1145.546875 1213.875 1136.695312 1213.113281 1128.984375 1211.34375 C 1121.269531 1209.574219 1114.695312 1206.917969 1109.257812 1204.390625 C 1103.949219 1201.863281 1099.773438 1199.460938 1096.867188 1197.816406 C 1094.085938 1196.171875 1092.441406 1195.160156 1092.441406 1195.160156 C 1092.441406 1195.160156 1094.085938 1195.917969 1097.121094 1197.308594 C 1100.152344 1198.699219 1104.453125 1200.46875 1110.015625 1202.621094 C 1115.453125 1204.644531 1122.15625 1206.792969 1129.613281 1208.058594 C 1137.074219 1209.449219 1145.546875 1209.828125 1154.144531 1208.4375 C 1162.742188 1207.046875 1170.453125 1203.882812 1176.398438 1199.332031 C 1182.339844 1194.78125 1186.386719 1189.089844 1188.914062 1183.90625 C 1191.316406 1178.722656 1192.203125 1174.042969 1192.328125 1170.757812 C 1192.328125 1170 1192.328125 1169.238281 1192.328125 1168.609375 C 1192.328125 1167.976562 1192.203125 1167.46875 1192.203125 1166.964844 C 1192.078125 1166.207031 1192.078125 1165.699219 1192.078125 1165.699219 Z M 1192.078125 1165.699219 " fill-opacity="1" fill-rule="nonzero"/><path fill="#7dd3f2" d="M 1083.589844 1161.527344 C 1083.589844 1161.527344 1084.855469 1160.390625 1087.382812 1158.617188 C 1089.914062 1156.847656 1093.578125 1154.320312 1098.511719 1151.792969 C 1103.441406 1149.261719 1109.511719 1146.605469 1116.589844 1144.710938 C 1123.671875 1142.8125 1131.636719 1141.421875 1140.109375 1141.421875 C 1148.582031 1141.296875 1156.671875 1142.433594 1163.753906 1144.332031 C 1167.292969 1145.214844 1170.582031 1146.355469 1173.617188 1147.492188 C 1175.132812 1148.125 1176.523438 1148.628906 1177.914062 1149.261719 C 1179.304688 1149.894531 1180.695312 1150.527344 1181.960938 1151.160156 C 1184.488281 1152.550781 1186.765625 1154.195312 1188.535156 1155.835938 C 1190.304688 1157.480469 1191.445312 1159.378906 1192.078125 1160.894531 C 1193.339844 1164.054688 1192.707031 1165.824219 1192.835938 1165.824219 C 1192.835938 1165.824219 1192.582031 1165.445312 1192.203125 1164.8125 C 1191.695312 1164.183594 1191.066406 1163.296875 1189.925781 1162.410156 C 1188.789062 1161.527344 1187.398438 1160.769531 1185.628906 1160.261719 C 1183.859375 1159.628906 1181.707031 1159.25 1179.304688 1159 C 1178.042969 1158.871094 1176.902344 1158.746094 1175.511719 1158.746094 C 1174.121094 1158.617188 1172.605469 1158.617188 1171.085938 1158.492188 C 1168.050781 1158.367188 1164.890625 1158.113281 1161.605469 1158.113281 C 1154.902344 1157.859375 1147.695312 1157.859375 1140.109375 1157.988281 C 1132.523438 1158.113281 1125.316406 1158.238281 1118.613281 1158.617188 C 1111.914062 1158.871094 1105.84375 1159.503906 1100.660156 1159.882812 C 1095.476562 1160.390625 1091.175781 1160.894531 1088.140625 1161.273438 C 1085.234375 1161.402344 1083.589844 1161.527344 1083.589844 1161.527344 Z M 1083.589844 1161.527344 " fill-opacity="1" fill-rule="nonzero"/><path fill="#7dd3f2" d="M 1257.824219 1338.542969 C 1257.824219 1338.542969 1257.699219 1338.289062 1257.320312 1337.65625 C 1256.941406 1337.152344 1256.5625 1336.265625 1255.800781 1335.253906 C 1255.167969 1334.246094 1254.285156 1332.980469 1253.148438 1331.84375 C 1252.007812 1330.703125 1250.492188 1329.691406 1248.847656 1329.441406 C 1247.078125 1329.058594 1245.179688 1329.566406 1244.550781 1330.578125 C 1244.296875 1330.832031 1244.042969 1331.335938 1243.664062 1331.96875 C 1243.285156 1332.601562 1242.652344 1333.484375 1241.640625 1334.117188 C 1240.753906 1334.875 1239.492188 1335.253906 1238.226562 1335.382812 C 1237.089844 1335.507812 1235.949219 1335.382812 1235.066406 1335.253906 C 1233.167969 1334.875 1231.652344 1334.246094 1230.386719 1333.863281 C 1229.753906 1333.613281 1229.125 1333.484375 1228.617188 1333.359375 C 1228.113281 1333.234375 1227.730469 1333.234375 1227.226562 1333.234375 C 1226.339844 1333.234375 1225.457031 1333.613281 1224.320312 1334.246094 C 1223.308594 1334.875 1222.042969 1335.761719 1220.90625 1336.648438 C 1218.503906 1338.667969 1215.847656 1341.070312 1212.558594 1342.96875 C 1209.144531 1344.863281 1205.480469 1345.371094 1202.445312 1345.625 C 1199.285156 1345.875 1196.5 1345.75 1193.972656 1345.75 C 1192.707031 1345.75 1191.570312 1345.75 1190.433594 1345.875 C 1189.292969 1346.003906 1188.28125 1346.128906 1187.269531 1346.382812 C 1183.226562 1347.269531 1180.316406 1349.039062 1178.800781 1350.933594 C 1178.042969 1351.820312 1177.535156 1352.703125 1177.28125 1353.210938 C 1177.03125 1353.84375 1176.902344 1354.09375 1176.902344 1354.09375 C 1177.03125 1354.09375 1176.648438 1352.703125 1177.660156 1350.175781 C 1178.671875 1347.648438 1181.457031 1344.613281 1185.878906 1342.589844 C 1187.019531 1342.082031 1188.15625 1341.578125 1189.421875 1341.199219 C 1190.683594 1340.820312 1192.074219 1340.566406 1193.339844 1340.3125 C 1195.996094 1339.808594 1198.777344 1339.429688 1201.433594 1338.921875 C 1204.089844 1338.417969 1206.617188 1337.65625 1208.765625 1336.265625 C 1210.914062 1334.875 1213.191406 1332.726562 1215.972656 1330.449219 C 1217.363281 1329.3125 1218.882812 1328.175781 1220.777344 1327.164062 C 1222.546875 1326.152344 1224.824219 1325.519531 1227.226562 1325.519531 C 1228.363281 1325.519531 1229.503906 1325.644531 1230.515625 1326.027344 C 1231.527344 1326.277344 1232.285156 1326.65625 1233.167969 1327.035156 C 1234.6875 1327.667969 1235.949219 1328.300781 1236.960938 1328.679688 C 1237.46875 1328.808594 1237.847656 1328.933594 1238.101562 1328.933594 C 1238.351562 1328.933594 1238.480469 1328.933594 1238.734375 1328.933594 C 1238.859375 1328.933594 1239.238281 1328.679688 1239.617188 1328.300781 C 1239.996094 1327.921875 1240.503906 1327.289062 1241.261719 1326.65625 C 1242.019531 1326.027344 1242.90625 1325.519531 1243.664062 1325.265625 C 1244.546875 1325.015625 1245.433594 1324.761719 1246.191406 1324.761719 C 1247.835938 1324.761719 1249.226562 1325.140625 1250.492188 1325.644531 C 1251.753906 1326.152344 1252.765625 1326.910156 1253.652344 1327.796875 C 1254.539062 1328.679688 1255.042969 1329.4375 1255.550781 1330.324219 C 1256.558594 1331.96875 1257.066406 1333.484375 1257.320312 1334.75 C 1257.699219 1336.015625 1257.824219 1336.898438 1257.953125 1337.53125 C 1257.699219 1338.164062 1257.824219 1338.542969 1257.824219 1338.542969 Z M 1257.824219 1338.542969 " fill-opacity="1" fill-rule="nonzero"/><path fill="#7dd3f2" d="M 1254.539062 1348.910156 C 1254.539062 1348.910156 1254.410156 1349.164062 1254.03125 1349.542969 C 1253.777344 1349.921875 1253.148438 1350.554688 1252.386719 1351.1875 C 1250.871094 1352.453125 1248.089844 1353.84375 1244.550781 1354.347656 C 1241.007812 1354.980469 1236.710938 1354.980469 1232.03125 1355.105469 C 1227.351562 1355.234375 1222.167969 1355.234375 1216.730469 1354.980469 C 1205.859375 1354.601562 1196.121094 1353.589844 1189.167969 1352.703125 C 1182.085938 1351.820312 1177.789062 1350.933594 1177.789062 1350.933594 C 1177.789062 1350.933594 1182.214844 1351.1875 1189.292969 1351.441406 C 1196.375 1351.691406 1206.109375 1352.199219 1216.859375 1352.453125 C 1222.167969 1352.578125 1227.351562 1352.832031 1232.03125 1352.957031 C 1236.710938 1353.082031 1240.882812 1353.335938 1244.421875 1353.082031 C 1247.835938 1352.832031 1250.617188 1351.820312 1252.261719 1350.808594 C 1253.019531 1350.300781 1253.652344 1349.796875 1254.03125 1349.417969 C 1254.285156 1349.164062 1254.539062 1348.910156 1254.539062 1348.910156 Z M 1254.539062 1348.910156 " fill-opacity="1" fill-rule="nonzero"/><path fill="#7dd3f2" d="M 1250.617188 1367.117188 C 1250.617188 1367.117188 1250.492188 1367.371094 1250.363281 1368.003906 C 1250.363281 1368.257812 1250.238281 1368.636719 1249.984375 1369.015625 C 1249.859375 1369.394531 1249.605469 1369.898438 1249.355469 1370.40625 C 1248.722656 1371.417969 1247.835938 1372.554688 1246.445312 1373.695312 C 1245.054688 1374.832031 1243.410156 1375.714844 1241.515625 1376.601562 C 1239.617188 1377.488281 1237.34375 1378.117188 1234.9375 1378.625 C 1232.535156 1379.128906 1230.132812 1379.636719 1227.480469 1380.140625 C 1222.167969 1381.027344 1216.226562 1381.660156 1209.652344 1381.152344 C 1206.363281 1380.902344 1203.203125 1380.269531 1200.292969 1379.257812 C 1197.386719 1378.246094 1194.730469 1377.105469 1192.328125 1375.84375 C 1189.925781 1374.578125 1187.652344 1373.1875 1185.628906 1371.671875 C 1183.605469 1370.152344 1181.960938 1368.507812 1180.570312 1366.867188 C 1179.8125 1366.105469 1179.304688 1365.222656 1178.800781 1364.335938 C 1178.292969 1363.453125 1177.914062 1362.691406 1177.535156 1361.933594 C 1176.902344 1360.289062 1176.523438 1358.898438 1176.523438 1357.761719 C 1176.523438 1357.128906 1176.523438 1356.625 1176.523438 1356.246094 C 1176.523438 1355.867188 1176.652344 1355.484375 1176.652344 1355.105469 C 1176.777344 1354.476562 1176.777344 1354.222656 1176.777344 1354.222656 C 1176.777344 1354.222656 1176.777344 1354.476562 1176.902344 1355.105469 C 1176.902344 1355.359375 1177.03125 1355.738281 1177.15625 1356.117188 C 1177.28125 1356.496094 1177.410156 1357.003906 1177.664062 1357.507812 C 1178.421875 1359.53125 1180.191406 1362.0625 1183.097656 1364.335938 C 1184.617188 1365.476562 1186.386719 1366.613281 1188.28125 1367.625 C 1190.304688 1368.636719 1192.457031 1369.648438 1194.859375 1370.40625 C 1197.261719 1371.292969 1199.789062 1372.175781 1202.316406 1372.808594 C 1204.847656 1373.441406 1207.628906 1373.945312 1210.410156 1374.199219 C 1216.101562 1374.707031 1221.664062 1374.453125 1226.972656 1374.324219 C 1229.628906 1374.199219 1232.03125 1374.074219 1234.433594 1374.074219 C 1236.710938 1373.945312 1238.734375 1373.695312 1240.628906 1373.441406 C 1242.527344 1373.0625 1244.167969 1372.554688 1245.433594 1372.050781 C 1246.824219 1371.417969 1247.835938 1370.660156 1248.59375 1370.027344 C 1248.972656 1369.648438 1249.355469 1369.269531 1249.605469 1369.015625 C 1249.859375 1368.636719 1250.113281 1368.382812 1250.238281 1368.128906 C 1250.492188 1367.371094 1250.617188 1367.117188 1250.617188 1367.117188 Z M 1250.617188 1367.117188 " fill-opacity="1" fill-rule="nonzero"/><path fill="#7dd3f2" d="M 1154.777344 1178.976562 C 1154.777344 1178.976562 1154.398438 1179.859375 1153.636719 1181.503906 C 1152.878906 1183.148438 1151.867188 1185.425781 1150.222656 1188.207031 C 1148.582031 1190.988281 1146.558594 1194.273438 1143.523438 1197.4375 C 1140.613281 1200.597656 1136.570312 1203.757812 1131.636719 1205.65625 C 1129.109375 1206.539062 1126.328125 1207.046875 1123.796875 1207.046875 C 1121.269531 1207.046875 1118.867188 1206.539062 1116.71875 1205.90625 C 1112.417969 1204.390625 1108.878906 1201.988281 1106.855469 1199.207031 C 1104.707031 1196.425781 1103.949219 1193.769531 1103.820312 1191.871094 C 1103.820312 1191.621094 1103.820312 1191.492188 1103.695312 1191.242188 C 1103.695312 1190.988281 1103.695312 1190.859375 1103.695312 1190.609375 C 1103.695312 1190.230469 1103.695312 1189.976562 1103.695312 1189.722656 C 1103.695312 1189.21875 1103.695312 1188.964844 1103.695312 1188.964844 C 1103.695312 1188.964844 1103.820312 1189.21875 1103.949219 1189.597656 C 1103.949219 1189.847656 1104.074219 1190.101562 1104.199219 1190.480469 C 1104.199219 1190.609375 1104.328125 1190.859375 1104.328125 1190.988281 C 1104.453125 1191.113281 1104.453125 1191.367188 1104.578125 1191.492188 C 1105.085938 1193.136719 1106.476562 1195.160156 1108.753906 1197.054688 C 1111.027344 1198.953125 1114.1875 1200.34375 1117.855469 1201.101562 C 1119.753906 1201.480469 1121.648438 1201.609375 1123.671875 1201.480469 C 1125.695312 1201.355469 1127.589844 1200.976562 1129.613281 1200.21875 C 1133.660156 1198.699219 1137.199219 1196.425781 1140.234375 1193.769531 C 1143.269531 1191.242188 1145.800781 1188.585938 1147.949219 1186.308594 C 1150.097656 1184.035156 1151.742188 1182.011719 1152.878906 1180.746094 C 1154.144531 1179.609375 1154.777344 1178.976562 1154.777344 1178.976562 Z M 1154.777344 1178.976562 " fill-opacity="1" fill-rule="nonzero"/></svg>